<svg xmlns="http://www.w3.org/2000/svg" width="58" height="58" fill="none" viewBox="0 0 58 58"><path fill="#0074CF" d="M51.5053 1.10117L6.70545 0.984766C3.61267 0.976729 1.09895 3.47741 1.09092 6.5702L0.974511 51.37C0.966475 54.4628 3.46716 56.9765 6.55994 56.9846L51.3598 57.101C54.4526 57.109 56.9663 54.6083 56.9743 51.5156L57.0907 6.7157C57.0988 3.62292 54.5981 1.10921 51.5053 1.10117Z"/><path fill="#F25022" d="M27.8766 12.2398L12.2764 12.1992L12.2358 27.7994L27.836 27.84L27.8766 12.2398Z"/><path fill="#7FBA00" d="M45.8766 12.2861L30.2764 12.2456L30.2358 27.8458L45.836 27.8863L45.8766 12.2861Z"/><path fill="#00A4EF" d="M27.8307 30.239L12.2305 30.1985L12.1899 45.7987L27.7901 45.8392L27.8307 30.239Z"/><path fill="#FFB900" d="M45.8326 30.2857L30.2324 30.2451L30.1919 45.8453L45.7921 45.8859L45.8326 30.2857Z"/></svg>